<svg width="168" height="30" viewBox="0 0 168 30" fill="none" xmlns="http://www.w3.org/2000/svg">
<g clip-path="url(#clip0_2421:13380)">
<path d="M15.1002 30.0084C23.4398 30.0084 30.2003 23.2908 30.2003 15.0042C30.2003 6.71761 23.4398 0 15.1002 0C6.76058 0 0 6.71761 0 15.0042C0 23.2908 6.76058 30.0084 15.1002 30.0084Z" fill="white"/>
<path d="M15.0998 29.579C23.2007 29.579 29.7678 23.0537 29.7678 15.0042C29.7678 6.9548 23.2007 0.429443 15.0998 0.429443C6.99886 0.429443 0.431763 6.9548 0.431763 15.0042C0.431763 23.0537 6.99886 29.579 15.0998 29.579Z" fill="white"/>
<path d="M15.1002 29.697C6.93998 29.697 0.305054 23.1042 0.305054 14.9959C0.305054 6.89598 6.93998 0.303223 15.1002 0.303223C23.2604 0.303223 29.8953 6.89598 29.8953 15.0043C29.8953 23.1042 23.2519 29.697 15.1002 29.697ZM15.1002 0.555819C7.07556 0.555819 0.559265 7.0307 0.559265 15.0043C0.559265 22.9695 7.08403 29.4528 15.1002 29.4528C23.1163 29.4528 29.6411 22.9695 29.6411 15.0043C29.6411 7.0307 23.1163 0.555819 15.1002 0.555819Z" fill="#092140"/>
<path d="M15.0998 25.9837C21.2024 25.9837 26.1495 21.068 26.1495 15.0042C26.1495 8.94035 21.2024 4.02466 15.0998 4.02466C8.99718 4.02466 4.05005 8.94035 4.05005 15.0042C4.05005 21.068 8.99718 25.9837 15.0998 25.9837Z" fill="white"/>
<path d="M15.1002 26.1099C8.93136 26.1099 3.91492 21.1254 3.91492 14.9957C3.91492 8.86604 8.93136 3.88989 15.1002 3.88989C21.2691 3.88989 26.2771 8.87446 26.2771 14.9957C26.2771 21.1254 21.2606 26.1099 15.1002 26.1099ZM15.1002 4.14249C9.07541 4.14249 4.16913 9.00918 4.16913 14.9957C4.16913 20.9822 9.06694 25.8573 15.1002 25.8573C21.125 25.8573 26.0229 20.9907 26.0229 14.9957C26.0229 9.0176 21.125 4.14249 15.1002 4.14249Z" fill="#092140"/>
<path d="M5.07581 21.4285L3.6607 22.321L3.55054 22.1442L4.96565 21.2517L5.07581 21.4285Z" fill="#092140"/>
<path d="M4.68588 20.8139L3.18603 21.538L3.13519 21.437L3.77919 19.9298L2.66066 20.4687L2.57593 20.2834L4.0673 19.5593L4.10967 19.6519L3.47414 21.1675L4.59267 20.6286L4.68588 20.8139Z" fill="#092140"/>
<path d="M3.80465 18.8185L2.40648 19.2731L2.6268 19.9299L2.44885 19.9888L1.94043 18.4732L2.11838 18.4143L2.33869 19.0795L3.73686 18.6248L3.80465 18.8185Z" fill="#092140"/>
<path d="M3.50817 17.8501L1.87274 18.1701L1.61853 16.8987L1.80495 16.865L2.0168 17.9427L2.4998 17.8501L2.37269 17.2018L2.55911 17.1681L2.68622 17.8164L3.27938 17.6986L3.05906 16.5535L3.24549 16.5198L3.50817 17.8501Z" fill="#092140"/>
<path d="M3.21154 16.1998L1.55069 16.2671L1.50832 15.3241C1.49137 15.1894 1.53374 15.0463 1.61848 14.9368C1.70322 14.8358 1.82185 14.7853 1.94896 14.7853C2.18622 14.7684 2.38959 14.9284 2.44043 15.1557L3.15222 14.7095L3.1607 14.9368L2.4489 15.3831L2.47433 16.023L3.20307 15.9893L3.21154 16.1998ZM2.27943 16.0314L2.24554 15.3073C2.24554 15.2231 2.22011 15.1389 2.16927 15.0715C2.11843 15.021 2.04217 14.9957 1.9659 15.0042C1.88964 15.0042 1.81338 15.0378 1.76253 15.0968C1.71169 15.1641 1.68627 15.2399 1.69474 15.3241L1.72864 16.0651L2.27943 16.0314Z" fill="#092140"/>
<path d="M3.16922 14.356L1.51685 14.1708L1.52532 14.0613L2.88111 13.1351L1.64395 13.0004L1.66937 12.7983L3.32175 12.9836L3.31327 13.0846L1.95748 14.0108L3.19464 14.1539L3.16922 14.356Z" fill="#092140"/>
<path d="M3.36406 12.731L1.97437 11.5101L2.01673 11.3417L3.83858 10.988L3.77927 11.207L3.28779 11.308L3.05053 12.1921L3.42337 12.5205L3.36406 12.731ZM2.88105 12.0489L3.07595 11.3501L2.27095 11.5101L2.88105 12.0489Z" fill="#092140"/>
<path d="M4.00815 10.6343L2.64388 10.087L2.3812 10.7353L2.20325 10.6679L2.80488 9.18604L2.98283 9.25339L2.72014 9.90173L4.08441 10.449L4.00815 10.6343Z" fill="#092140"/>
<path d="M4.4318 9.69132L2.94043 8.93353L3.03364 8.74829L4.52501 9.50608L4.4318 9.69132Z" fill="#092140"/>
<path d="M5.20284 8.46206C5.0842 8.65572 4.88931 8.79044 4.66052 8.84096C4.43173 8.88306 4.19446 8.83254 4.00804 8.69782C3.81315 8.57152 3.66909 8.37787 3.61825 8.15053C3.53351 7.67902 3.83857 7.23276 4.30462 7.13172C4.77915 7.05594 5.22826 7.35906 5.33842 7.81373C5.38926 8.04107 5.33842 8.27683 5.20284 8.46206ZM5.04184 8.35261C5.14352 8.20947 5.17741 8.03265 5.14352 7.86425C5.10115 7.68744 4.99099 7.53588 4.83847 7.44326C4.69441 7.34222 4.50799 7.30012 4.33004 7.32538C3.97415 7.39274 3.74536 7.73795 3.81315 8.09159C3.90636 8.44522 4.25378 8.68098 4.61815 8.63046C4.7961 8.6052 4.94862 8.50416 5.04184 8.35261Z" fill="#092140"/>
<path d="M5.88081 7.44322L4.66907 6.32337L4.74533 6.24759L6.38923 6.30653L5.47407 5.46455L5.61812 5.31299L6.83834 6.44125L6.77055 6.51703L5.11817 6.46651L6.03334 7.3085L5.88081 7.44322Z" fill="#092140"/>
<path d="M7.01626 6.24749L6.62646 4.44564L6.76204 4.33618L8.43984 5.12765L8.26189 5.26237L7.80431 5.05187L7.08405 5.616L7.18573 6.10435L7.01626 6.24749ZM7.0332 5.41392L7.60942 4.96767L6.86373 4.61404L7.0332 5.41392Z" fill="#092140"/>
<path d="M8.66861 5.00141L7.82971 3.57003L8.00766 3.46899L8.74487 4.73197L9.68546 4.1931L9.77867 4.3615L8.66861 5.00141Z" fill="#092140"/>
<path d="M11.2192 2.05442C11.4395 1.97864 11.6852 1.99548 11.8886 2.09652C12.092 2.19756 12.236 2.38279 12.2953 2.60171C12.3716 2.81221 12.3462 3.04796 12.2445 3.24162C12.1258 3.4437 11.931 3.58683 11.7022 3.63735L11.0158 3.83943L10.5413 2.25649L11.2192 2.05442ZM11.27 2.23966L10.787 2.38279L11.1514 3.60367L11.6344 3.46054C11.8038 3.41844 11.9564 3.30898 12.0496 3.15742C12.1343 3.00586 12.1428 2.82905 12.0835 2.66065C12.0411 2.49225 11.931 2.34911 11.7784 2.26491C11.6259 2.18914 11.4395 2.18072 11.27 2.23966Z" fill="#092140"/>
<path d="M12.8886 3.33429L12.6768 1.69241L13.6258 1.56611C13.7614 1.54085 13.9054 1.56611 14.0241 1.64189C14.1258 1.71767 14.1936 1.83555 14.202 1.96185C14.2359 2.18918 14.0919 2.4081 13.8716 2.47546L14.38 3.14063L14.1512 3.16589L13.6428 2.50072L13.0072 2.58492L13.1004 3.30061L12.8886 3.33429ZM12.9733 2.39968L13.7021 2.30706C13.7868 2.29864 13.8631 2.26496 13.9309 2.20602C13.9817 2.14708 13.9987 2.07131 13.9817 1.99553C13.9732 1.91975 13.9393 1.85239 13.8716 1.80187C13.8038 1.75977 13.719 1.74293 13.6343 1.75977L12.8971 1.85239L12.9733 2.39968Z" fill="#092140"/>
<path d="M14.7528 3.14907L14.7189 1.48193H14.9307L14.9646 3.14907H14.7528Z" fill="#092140"/>
<path d="M16.1508 3.19116L16.0237 3.18274L15.3628 1.46509L15.5831 1.48193L16.1085 2.86279L16.8626 1.59139L17.0914 1.60823L16.1508 3.19116Z" fill="#092140"/>
<path d="M17.1931 3.31742L17.566 1.70923L18.837 2.00392L18.7946 2.18916L17.727 1.93657L17.6168 2.40808L18.2693 2.55964L18.2269 2.74487L17.5744 2.59331L17.4389 3.17429L18.5828 3.4353L18.5404 3.62054L17.1931 3.31742Z" fill="#092140"/>
<path d="M18.8286 3.7215L19.4387 2.18066L20.3285 2.52588C20.464 2.56798 20.5742 2.6606 20.642 2.77848C20.7013 2.89635 20.7013 3.03107 20.6505 3.14053C20.6081 3.24999 20.5318 3.33419 20.4302 3.38471C20.3285 3.43523 20.2183 3.45207 20.1082 3.42681L20.2268 4.25195L20.0149 4.16776L19.8963 3.34261L19.2947 3.10685L19.032 3.78044L18.8286 3.7215ZM19.354 2.93845L20.0404 3.20789C20.1166 3.24157 20.2014 3.24999 20.2861 3.23315C20.3539 3.20789 20.4132 3.14895 20.4386 3.07317C20.4725 3.00581 20.4725 2.92161 20.4386 2.85425C20.3963 2.7869 20.3369 2.72796 20.2607 2.7027L19.5658 2.43326L19.354 2.93845Z" fill="#092140"/>
<path d="M20.5319 4.13424L20.7268 4.04162C20.7776 4.17634 20.8454 4.29422 20.9386 4.40368C21.0149 4.50472 21.1165 4.58891 21.2267 4.65627C21.3369 4.72363 21.464 4.76573 21.5995 4.75731C21.7012 4.75731 21.8029 4.70679 21.8538 4.61417C21.8961 4.54681 21.8961 4.46262 21.8622 4.38684C21.8199 4.29422 21.7521 4.21844 21.6673 4.1595C21.6419 4.14266 21.608 4.1174 21.5656 4.09214C21.4046 3.9911 21.2606 3.87322 21.1335 3.73009C21.0911 3.67115 21.0572 3.59537 21.0572 3.51959C21.0488 3.45223 21.0657 3.37645 21.1081 3.31751C21.1759 3.19963 21.2945 3.13228 21.4301 3.12386C21.5911 3.11544 21.7605 3.15753 21.8961 3.25015C22.0148 3.31751 22.1249 3.41013 22.2096 3.51117C22.3029 3.62063 22.3791 3.74693 22.4384 3.88164L22.2435 3.96584C22.2012 3.84796 22.1334 3.73851 22.0571 3.64589C21.9809 3.55327 21.8876 3.47749 21.786 3.41855C21.6928 3.35961 21.5911 3.32593 21.4809 3.32593C21.4046 3.31751 21.3284 3.35961 21.286 3.41855C21.2691 3.44381 21.2606 3.46907 21.2606 3.49433C21.2606 3.52801 21.2691 3.55327 21.2775 3.57853C21.3114 3.65431 21.4216 3.76377 21.608 3.88164C21.6928 3.94058 21.7605 3.98268 21.8114 4.02478C21.93 4.10898 22.0232 4.22686 22.0741 4.36158C22.1164 4.47946 22.0995 4.61417 22.0317 4.71521C21.9554 4.84993 21.8199 4.93413 21.6589 4.94255C21.4724 4.95939 21.286 4.90887 21.125 4.80783C20.8539 4.66469 20.642 4.42052 20.5319 4.13424Z" fill="#092140"/>
<path d="M22.7689 5.8771L24.5145 5.26245L24.6416 5.38033L24.0654 7.14008L23.9044 6.98852L24.0569 6.50859L23.396 5.86868L22.9299 6.03708L22.7689 5.8771ZM23.5993 5.7929L24.1247 6.29809L24.3789 5.51505L23.5993 5.7929Z" fill="#092140"/>
<path d="M24.328 7.07268L24.5398 7.06426C24.5398 7.2074 24.5568 7.35053 24.5907 7.48525C24.6246 7.61155 24.6839 7.72943 24.7602 7.83047C24.8364 7.93992 24.9381 8.02412 25.0652 8.06622C25.1584 8.10832 25.2686 8.09148 25.3533 8.03254C25.4211 7.98202 25.455 7.90624 25.455 7.83047C25.455 7.72943 25.4211 7.62839 25.3618 7.54419C25.3449 7.51893 25.3194 7.48525 25.294 7.43473C25.1839 7.28318 25.0906 7.10636 25.0313 6.92954C25.0144 6.85376 25.0144 6.77798 25.0398 6.70221C25.0652 6.63485 25.1076 6.57591 25.1669 6.53381C25.2771 6.45803 25.4126 6.43277 25.5397 6.47487C25.6923 6.52539 25.8279 6.63485 25.9211 6.76957C26.0058 6.87902 26.0736 7.00532 26.116 7.14004C26.1583 7.27476 26.1838 7.41789 26.1838 7.56945L25.9719 7.57787C25.9804 7.45157 25.9634 7.32527 25.9295 7.2074C25.8956 7.09794 25.8448 6.98848 25.7685 6.89586C25.7092 6.80324 25.6245 6.73589 25.5228 6.69379C25.455 6.66011 25.3703 6.66011 25.3025 6.71063C25.2771 6.72747 25.2601 6.75273 25.2516 6.77798C25.2432 6.80324 25.2347 6.83692 25.2347 6.8706C25.2347 6.9548 25.294 7.08952 25.4211 7.28318C25.4804 7.36737 25.5228 7.43473 25.5482 7.48525C25.6245 7.61155 25.6669 7.75469 25.6584 7.89782C25.6499 8.02412 25.5821 8.142 25.4804 8.20936C25.3618 8.30198 25.2008 8.32724 25.0483 8.27672C24.8703 8.21778 24.7178 8.0999 24.6076 7.93992C24.5144 7.81363 24.4382 7.67891 24.3873 7.52735C24.3534 7.37579 24.328 7.22424 24.328 7.07268Z" fill="#092140"/>
<path d="M25.4466 8.5798L25.6585 8.60506C25.633 8.73978 25.6246 8.88291 25.65 9.02605C25.6669 9.15235 25.7008 9.27865 25.7601 9.38811C25.8195 9.50599 25.9127 9.60702 26.0228 9.67438C26.1076 9.7249 26.2177 9.73332 26.3109 9.6828C26.3787 9.64912 26.4296 9.57335 26.438 9.49757C26.4465 9.39653 26.4296 9.29549 26.3872 9.20287C26.3787 9.17761 26.3618 9.13551 26.3364 9.08499C26.2516 8.91659 26.1923 8.73978 26.1584 8.54612C26.1499 8.47034 26.1669 8.39456 26.2008 8.3272C26.2347 8.26826 26.2855 8.21774 26.3448 8.18406C26.4635 8.11671 26.599 8.11671 26.7177 8.18406C26.8617 8.25984 26.9804 8.38614 27.0482 8.52928C27.1159 8.65558 27.1583 8.78188 27.1837 8.92501C27.2092 9.06815 27.2092 9.21129 27.1837 9.35443L26.9719 9.32917C26.9973 9.21129 26.9973 9.08499 26.9804 8.95869C26.9634 8.84082 26.9295 8.72294 26.8702 8.6219C26.8194 8.52928 26.7516 8.44508 26.6584 8.38614C26.599 8.33562 26.5143 8.3272 26.438 8.36088C26.4126 8.37772 26.3957 8.39456 26.3787 8.41982C26.3618 8.44508 26.3533 8.47034 26.3448 8.50402C26.3364 8.58822 26.3703 8.73136 26.4635 8.94185C26.5058 9.03447 26.5397 9.11025 26.5567 9.16077C26.616 9.29549 26.6329 9.44705 26.599 9.59019C26.5736 9.71648 26.4889 9.81752 26.3787 9.87646C26.2431 9.95224 26.0821 9.95224 25.9466 9.87646C25.7771 9.79226 25.6415 9.64912 25.5652 9.48073C25.489 9.34601 25.4381 9.19445 25.4127 9.04289C25.4212 8.88291 25.4212 8.73136 25.4466 8.5798Z" fill="#092140"/>
<path d="M26.3364 11.1732C26.2516 10.9627 26.2686 10.7185 26.3703 10.5164C26.599 10.0954 27.1159 9.91862 27.5566 10.1123C27.9803 10.3312 28.1582 10.8448 27.9548 11.2742C27.7261 11.6952 27.2092 11.872 26.7685 11.6784C26.5652 11.5773 26.4041 11.3921 26.3364 11.1732ZM26.5228 11.1058C26.5736 11.2742 26.6923 11.4089 26.8533 11.4763C27.1922 11.6194 27.5905 11.4847 27.7769 11.1648C27.9379 10.8448 27.8023 10.4491 27.4718 10.2891C27.1329 10.146 26.7346 10.2807 26.5567 10.6006C26.4719 10.7606 26.4635 10.9458 26.5228 11.1058Z" fill="#092140"/>
<path d="M27.4802 13.5392L27.387 13.7244C27.2345 13.6739 27.1074 13.5897 27.0057 13.4718C26.904 13.354 26.8362 13.2024 26.8108 13.0508C26.7684 12.8235 26.8108 12.5877 26.9464 12.4025C27.243 12.0236 27.7768 11.931 28.1835 12.192C28.37 12.3267 28.4971 12.5288 28.531 12.7561C28.5564 12.8993 28.5479 13.0424 28.5055 13.1856C28.4632 13.3203 28.3784 13.4382 28.2767 13.5392L28.1242 13.3876C28.209 13.3203 28.2767 13.2277 28.3191 13.1266C28.3615 13.0172 28.37 12.8993 28.3445 12.7898C28.3191 12.6214 28.2259 12.4614 28.0734 12.3688C27.7599 12.1752 27.3446 12.2425 27.1159 12.5288C27.0142 12.6719 26.9718 12.8488 27.0057 13.0172C27.0226 13.135 27.082 13.2529 27.1582 13.3455C27.2514 13.4297 27.3616 13.5055 27.4802 13.5392Z" fill="#092140"/>
<path d="M26.9973 14.1958L28.6666 14.0947L28.6751 14.3052L27.0058 14.3979L26.9973 14.1958Z" fill="#092140"/>
<path d="M27.0482 14.6758L28.6666 15.5683L28.6582 15.7367L26.955 16.4776L26.9634 16.2587L27.421 16.0566L27.4634 15.1473L27.0312 14.9031L27.0482 14.6758ZM27.6667 15.2315L27.6329 15.9556L28.387 15.6272L27.6667 15.2315Z" fill="#092140"/>
<path d="M26.8701 16.8651L28.3192 17.1093L28.4378 16.4272L28.6242 16.4609L28.3615 18.0354L28.1751 18.0018L28.2937 17.3113L26.8447 17.0672L26.8701 16.8651Z" fill="#092140"/>
<path d="M26.6668 17.8669L28.2853 18.2795L28.2345 18.4816L26.616 18.069L26.6668 17.8669Z" fill="#092140"/>
<path d="M26.1837 19.2394C26.26 19.0205 26.421 18.8437 26.6329 18.751C27.082 18.5742 27.5904 18.7679 27.8022 19.1973C27.9887 19.6351 27.7938 20.1403 27.3616 20.3424C26.9125 20.5192 26.4041 20.3256 26.1922 19.8961C26.099 19.6941 26.099 19.4499 26.1837 19.2394ZM26.3617 19.3068C26.2939 19.4667 26.3024 19.652 26.3786 19.8035C26.5481 20.1319 26.9379 20.275 27.2853 20.1487C27.6158 20.0056 27.7683 19.6183 27.6243 19.2899C27.4548 18.9615 27.065 18.81 26.7091 18.9447C26.5481 19.0121 26.421 19.1468 26.3617 19.3068Z" fill="#092140"/>
<path d="M25.7432 20.3762L27.1837 21.2098L27.1329 21.3024L25.5144 21.6055L26.5906 22.2286L26.4889 22.4054L25.0483 21.5718L25.0992 21.4792L26.7177 21.1761L25.6415 20.553L25.7432 20.3762Z" fill="#092140"/>
<path d="M15.1002 4.79102C9.42277 4.79102 4.82153 9.36301 4.82153 15.0043C4.82153 20.6456 9.42277 25.2176 15.1002 25.2176C20.7776 25.2176 25.3788 20.6456 25.3788 15.0043C25.3618 9.36301 20.7691 4.79944 15.1002 4.79102ZM14.3968 6.32343V8.73994H12.1767C12.2021 8.68942 12.2276 8.6389 12.253 8.5968C12.88 7.37592 13.6342 6.60971 14.3968 6.32343ZM15.795 6.32343C16.5576 6.61813 17.3118 7.37592 17.9389 8.5968C17.9643 8.64732 17.9897 8.69784 18.0151 8.73994H15.795V6.32343V6.32343ZM11.6683 6.8623C11.4226 7.20752 11.2022 7.56957 11.0074 7.94847C10.8802 8.20106 10.7616 8.46208 10.6515 8.73152H8.85503C9.66003 7.94005 10.6176 7.30014 11.6683 6.8623ZM18.5235 6.8623C19.5743 7.30014 20.5318 7.93163 21.3368 8.73152H19.5404C19.4302 8.46208 19.3116 8.20106 19.1845 7.94847C18.9981 7.57799 18.7778 7.20752 18.5235 6.8623ZM7.69413 10.1292H10.143C9.92272 10.887 9.76172 11.6616 9.66003 12.4531H6.60102C6.84675 11.628 7.2196 10.8449 7.69413 10.1292ZM11.6259 10.1292H14.3968V12.4531H11.0836C11.2022 11.6616 11.3802 10.887 11.6259 10.1292ZM15.795 10.1292H18.5659C18.8117 10.887 18.9896 11.6616 19.1082 12.4531H15.795V10.1292V10.1292ZM20.0403 10.1292H22.4893C22.9638 10.8449 23.3366 11.628 23.5824 12.4531H20.5149C20.4217 11.6616 20.2607 10.887 20.0403 10.1292ZM6.30444 13.8424H9.53292C9.5075 14.2213 9.49903 14.6086 9.49903 15.0043C9.49903 15.4001 9.51598 15.7874 9.53292 16.1663H6.30444C6.25359 15.779 6.2197 15.3916 6.2197 15.0043C6.2197 14.6086 6.25359 14.2213 6.30444 13.8424ZM10.9311 13.8424H14.3968V16.1663H10.9311C10.9057 15.7874 10.8972 15.4001 10.8972 15.0043C10.8972 14.6086 10.9057 14.2213 10.9311 13.8424ZM15.795 13.8424H19.2608C19.2862 14.2213 19.2947 14.6086 19.2947 15.0043C19.2947 15.4001 19.2862 15.7874 19.2608 16.1663H15.795V13.8424ZM20.6674 13.8424H23.8959C24.006 14.6086 24.006 15.3916 23.8959 16.1663H20.6674C20.6928 15.7874 20.7013 15.4001 20.7013 15.0043C20.7013 14.6086 20.6843 14.2213 20.6674 13.8424ZM6.60102 17.5555H9.6685C9.77019 18.3386 9.93119 19.1132 10.1515 19.871H7.69413C7.2196 19.1553 6.84675 18.3723 6.60102 17.5555ZM11.0751 17.5555H14.3968V19.871H11.6175C11.3717 19.1132 11.1938 18.3386 11.0751 17.5555ZM15.795 17.5555H19.1167C18.9981 18.3386 18.8201 19.1132 18.5744 19.871H15.795V17.5555V17.5555ZM20.5233 17.5555H23.5908C23.3451 18.3723 22.9807 19.1553 22.5062 19.871H20.0488C20.2691 19.1132 20.4301 18.3386 20.5233 17.5555ZM8.84655 21.2687H10.6515C10.7616 21.5381 10.8802 21.7992 11.0074 22.0433C11.2022 22.4306 11.431 22.7927 11.6853 23.1463C10.6176 22.7085 9.66003 22.0686 8.84655 21.2687ZM12.1767 21.2687H14.3968V23.6852C13.6342 23.3905 12.88 22.6327 12.253 21.4203L12.1767 21.2687ZM15.795 21.2687H18.0151C17.9897 21.3192 17.9643 21.3697 17.9389 21.4118C17.3118 22.6327 16.5576 23.3905 15.795 23.6768V21.2687V21.2687ZM19.5489 21.2687H21.3538C20.5403 22.0686 19.5743 22.7085 18.5151 23.1463C18.7693 22.7927 18.9981 22.4306 19.193 22.0433C19.3201 21.7907 19.4387 21.5381 19.5489 21.2687Z" fill="#092140"/>
<path d="M35.4117 6.61816H34.2932V13.7161H35.4117V6.61816Z" fill="#092140"/>
<path d="M38.9622 8.84102L43.2415 13.7161H43.86V6.65186H42.75V11.5354L38.4877 6.65186H37.8522V13.7161H38.9622V8.84102Z" fill="#092140"/>
<path d="M47.4698 13.7161H48.5799V7.69592H51.4694V6.65186H44.5887V7.69592H47.4698V13.7161Z" fill="#092140"/>
<path d="M58.1382 12.6805H53.3167V10.4745H56.0622V9.43883H53.3167V7.69592H57.8586V6.65186H52.2151V13.7161H58.1382V12.6805Z" fill="#092140"/>
<path d="M60.8584 10.7354H63.3157L65.0274 13.716H66.2646L64.5275 10.6933C65.4511 10.4744 66.1036 9.63237 66.0866 8.68093C66.0866 8.05786 65.8748 7.56108 65.4681 7.19903C65.0698 6.84539 64.5105 6.66016 63.8072 6.66016H59.7483V13.7244H60.8499V10.7354H60.8584ZM60.8584 7.6958H63.7987C64.1631 7.6958 64.4427 7.78842 64.6461 7.96524C64.841 8.14205 64.9342 8.38623 64.9342 8.70619C64.9342 9.03456 64.841 9.27874 64.6461 9.44714C64.4512 9.61553 64.1462 9.69973 63.7479 9.69973H60.8499L60.8584 7.6958Z" fill="#092140"/>
<path d="M74.018 13.7161V6.65186H72.9079V11.5354L68.6456 6.65186H68.0186V13.7161H69.1201V8.84102L73.3994 13.7161H74.018Z" fill="#092140"/>
<path d="M81.9918 13.7161H83.1951L79.6785 6.65186H78.8141L75.3314 13.7161H76.5262L77.4329 11.8806H81.0597L81.9918 13.7161ZM80.5597 10.8365H77.9583L79.2548 8.23479L80.5597 10.8365Z" fill="#092140"/>
<path d="M82.1613 7.69592H85.0423V13.7161H86.1524V7.69592H89.0419V6.65186H82.1613V7.69592Z" fill="#092140"/>
<path d="M90.923 6.61816H89.8044V13.7161H90.923V6.61816Z" fill="#092140"/>
<path d="M96.4818 13.8929C97.541 13.8929 98.4308 13.5393 99.1256 12.8404C99.8205 12.15 100.168 11.2575 100.168 10.1966C100.168 9.13566 99.812 8.24316 99.1171 7.54431C98.4223 6.84546 97.5326 6.50024 96.4734 6.50024C95.4141 6.50024 94.5329 6.85388 93.838 7.54431C93.1432 8.23474 92.7958 9.12724 92.7958 10.1966C92.7958 11.2575 93.1432 12.15 93.838 12.8404C94.5414 13.5393 95.4311 13.8929 96.4818 13.8929ZM93.9397 10.205C93.9397 9.43878 94.1855 8.79887 94.66 8.3021C95.1345 7.80532 95.7531 7.55273 96.4818 7.55273C97.219 7.55273 97.8291 7.80532 98.3037 8.29368C98.7782 8.79045 99.0239 9.43036 99.0239 10.1966C99.0239 10.9628 98.7782 11.6027 98.3037 12.091C97.8291 12.5878 97.2106 12.832 96.4818 12.832C95.7531 12.832 95.143 12.5794 94.66 12.091C94.1855 11.6111 93.9397 10.9712 93.9397 10.205Z" fill="#092140"/>
<path d="M103.159 8.84102L107.43 13.7161H108.049V6.65186H106.938V11.5354L102.685 6.65186H102.049V13.7161H103.159V8.84102Z" fill="#092140"/>
<path d="M117.234 13.7161L113.717 6.65186H112.853L109.37 13.7161H110.565L111.472 11.8806H115.099L116.031 13.7161H117.234ZM114.59 10.8365H111.98L113.277 8.23479L114.59 10.8365Z" fill="#092140"/>
<path d="M124.157 12.6805H119.683V6.65186H118.581V13.7161H124.157V12.6805Z" fill="#092140"/>
<path d="M37.3437 16.2588H34.2847V23.3231H37.3437C38.4707 23.3231 39.3859 22.9947 40.0553 22.3632C40.7247 21.7233 41.0721 20.8645 41.0721 19.812C41.0721 18.7679 40.7247 17.9007 40.0468 17.2523C39.3604 16.5872 38.4537 16.2588 37.3437 16.2588ZM37.3437 22.279H35.3863V17.286H37.3437C38.1317 17.286 38.7673 17.5134 39.2333 17.968C39.6994 18.4227 39.9366 19.0289 39.9366 19.7867C39.9366 20.5529 39.6994 21.1592 39.2503 21.6054C38.7927 22.0517 38.1572 22.279 37.3437 22.279Z" fill="#092140"/>
<path d="M49.2408 18.2713C49.2408 17.6482 49.0374 17.1514 48.6306 16.7894C48.2324 16.4357 47.6731 16.2505 46.9698 16.2505H42.9109V23.3148H44.0209V20.3341H46.4699L48.1815 23.3148H49.4187L47.6816 20.2836C48.6137 20.0647 49.2662 19.2227 49.2408 18.2713ZM48.0883 18.2965C48.0883 18.6249 47.9951 18.8691 47.8002 19.0375C47.6053 19.2059 47.3003 19.2901 46.902 19.2901H44.004L44.0125 17.2946H46.9444C47.3087 17.2946 47.5884 17.3872 47.7917 17.564C47.9951 17.7324 48.0883 17.9766 48.0883 18.2965Z" fill="#092140"/>
<path d="M52.3082 16.2168H51.1897V23.3148H52.3082V16.2168Z" fill="#092140"/>
<path d="M57.3248 21.5465L54.7572 16.2588H53.554L56.9773 23.3147H57.6722L61.1125 16.2588H59.8838L57.3248 21.5465Z" fill="#092140"/>
<path d="M63.4597 20.073H66.2052V19.0374H63.4597V17.2944H68.0016V16.2588H62.3582V23.3147H68.2813V22.279H63.4597V20.073Z" fill="#092140"/>
<path d="M76.2296 18.2713C76.2296 17.6482 76.0263 17.1514 75.6195 16.7894C75.2213 16.4357 74.662 16.2505 73.9587 16.2505H69.8998V23.3148H71.0014V20.3341H73.4587L75.1789 23.3148H76.4076L74.6705 20.2836C75.5941 20.0647 76.2466 19.2227 76.2296 18.2713ZM71.0014 17.2946H73.9417C74.3061 17.2946 74.5857 17.3872 74.7891 17.564C74.984 17.7408 75.0772 17.985 75.0772 18.3049C75.0772 18.6333 74.984 18.8775 74.7891 19.0459C74.5942 19.2143 74.2892 19.2985 73.8909 19.2985H70.9929L71.0014 17.2946Z" fill="#092140"/>
<path d="M83.7119 19.7448C83.2882 19.3659 82.712 19.1301 81.9917 19.0459C81.7544 19.0123 81.4155 18.987 80.9833 18.9618C80.0766 18.9028 79.492 18.7765 79.2293 18.5829C79.1445 18.5155 79.0683 18.4397 79.0174 18.3471C78.9751 18.2629 78.9496 18.1703 78.9496 18.0777C78.9496 17.8251 79.0937 17.6146 79.3903 17.4378C79.7038 17.2525 80.1105 17.1599 80.602 17.1599C81.085 17.1599 81.5426 17.2441 81.9917 17.4041C82.4662 17.5809 82.8984 17.8251 83.2882 18.145L83.3983 18.2292L84.0423 17.3115L83.9407 17.2357C83.4492 16.8736 82.9069 16.5874 82.3222 16.3937C81.7629 16.2 81.1782 16.1074 80.5851 16.1074C79.7801 16.1074 79.1022 16.2927 78.5937 16.6631C78.0684 17.042 77.8057 17.522 77.8057 18.1113C77.8057 18.4313 77.8989 18.7344 78.0769 18.9954C78.2718 19.2733 78.5429 19.4922 78.8564 19.6269C79.2801 19.8206 80.0512 19.9553 81.2036 20.0311C81.4155 20.0395 81.5934 20.0563 81.7205 20.0648C82.1951 20.1069 82.5679 20.2247 82.8306 20.4268C83.0679 20.5952 83.2034 20.8646 83.2034 21.1509C83.2034 21.5298 83.0255 21.8329 82.6696 22.0771C82.2968 22.3297 81.8053 22.456 81.2036 22.456C80.6868 22.456 80.1783 22.3549 79.6953 22.1697C79.1615 21.9676 78.6615 21.6814 78.2209 21.3277L78.1107 21.2435L77.4752 22.1866L77.5684 22.2623C78.0853 22.6665 78.6615 22.978 79.2801 23.1885C79.8987 23.3906 80.5427 23.5 81.1952 23.5C82.1358 23.5 82.9069 23.2896 83.4915 22.8601C84.0762 22.4223 84.3813 21.8666 84.3813 21.1846C84.3728 20.6289 84.1356 20.1068 83.7119 19.7448Z" fill="#092140"/>
<path d="M93.6261 16.2588L90.1434 23.3231H91.3382L92.2449 21.4875H95.8717L96.8038 23.3231H98.007L94.4904 16.2588H93.6261ZM95.3717 20.4351H92.7618L94.0583 17.8333L95.3717 20.4351Z" fill="#092140"/>
<path d="M104.913 19.7447C104.49 19.3658 103.913 19.13 103.193 19.0458C102.956 19.0122 102.617 18.9869 102.185 18.9616C101.278 18.9027 100.693 18.7764 100.431 18.5827C100.346 18.5154 100.27 18.4396 100.219 18.347C100.176 18.2628 100.151 18.1702 100.151 18.0776C100.151 17.825 100.295 17.6145 100.592 17.4376C100.905 17.2524 101.312 17.1598 101.803 17.1598C101.812 17.1598 101.812 17.1598 101.82 17.1598C102.295 17.1598 102.752 17.244 103.202 17.404C103.676 17.5808 104.108 17.8334 104.498 18.1449L104.608 18.2291L105.252 17.3113L105.15 17.2356C104.659 16.8735 104.108 16.5872 103.532 16.3852C102.973 16.1915 102.388 16.0989 101.795 16.0989C100.99 16.0989 100.312 16.2841 99.8036 16.6546C99.2782 17.0335 99.0155 17.5134 99.0155 18.1028C99.0155 18.4228 99.1087 18.7259 99.2867 18.9869C99.4816 19.2648 99.7527 19.4837 100.066 19.6184C100.49 19.812 101.261 19.9468 102.413 20.0225C102.625 20.031 102.803 20.0478 102.93 20.0562C103.405 20.0983 103.778 20.2162 104.04 20.4183C104.278 20.5867 104.413 20.8561 104.413 21.1424C104.413 21.5213 104.235 21.8244 103.879 22.0686C103.507 22.3212 103.015 22.4475 102.413 22.4475C101.897 22.4475 101.388 22.3464 100.905 22.1612C100.371 21.9591 99.8714 21.6728 99.4307 21.3192L99.3206 21.235L98.6851 22.178L98.7783 22.2538C99.2952 22.658 99.8714 22.9779 100.498 23.1884C101.109 23.3905 101.744 23.4915 102.388 23.4915C102.405 23.4915 102.422 23.4915 102.439 23.4915C103.363 23.4915 104.125 23.2726 104.701 22.8516C105.286 22.4138 105.591 21.8581 105.591 21.1761C105.574 20.6372 105.337 20.1067 104.913 19.7447Z" fill="#092140"/>
<path d="M113.133 19.7447C112.709 19.3658 112.133 19.13 111.412 19.0458C111.175 19.0122 110.836 18.9869 110.404 18.9616C109.497 18.9027 108.904 18.7764 108.65 18.5827C108.565 18.5154 108.489 18.4396 108.438 18.347C108.396 18.2628 108.37 18.1786 108.37 18.086C108.37 17.8334 108.514 17.6229 108.811 17.4461C109.125 17.2608 109.531 17.1682 110.023 17.1682C110.497 17.1682 110.972 17.2524 111.421 17.4124C111.895 17.5892 112.328 17.8418 112.717 18.1533L112.828 18.2375L113.472 17.3198L113.37 17.244C112.878 16.8819 112.336 16.5957 111.751 16.402C111.192 16.2083 110.607 16.1157 110.014 16.1157C109.209 16.1157 108.531 16.301 108.023 16.6714C107.498 17.0503 107.235 17.5303 107.235 18.1197C107.235 18.4396 107.328 18.7427 107.506 19.0037C107.701 19.2816 107.972 19.5005 108.286 19.6352C108.709 19.8289 109.48 19.9636 110.633 20.0394C110.845 20.0478 111.023 20.0646 111.15 20.0731C111.624 20.1152 111.997 20.233 112.26 20.4351C112.497 20.6035 112.633 20.8645 112.633 21.1592C112.633 21.5381 112.455 21.8412 112.099 22.0854C111.726 22.338 111.235 22.4643 110.633 22.4643C110.116 22.4643 109.608 22.3633 109.125 22.178C108.591 21.976 108.091 21.6897 107.642 21.3361L107.532 21.2519L106.896 22.1949L106.989 22.2707C107.506 22.6748 108.082 22.9864 108.701 23.1968C109.319 23.3989 109.963 23.5084 110.616 23.5084C110.624 23.5084 110.633 23.5084 110.65 23.5084C111.573 23.5084 112.336 23.2895 112.912 22.8685C113.497 22.4306 113.802 21.8749 113.802 21.1929C113.794 20.6288 113.556 20.1067 113.133 19.7447Z" fill="#092140"/>
<path d="M118.937 16.0989C117.886 16.0989 116.997 16.4525 116.302 17.1429C115.607 17.8334 115.26 18.7259 115.26 19.7952C115.26 20.8561 115.607 21.7486 116.302 22.4391C116.988 23.1379 117.878 23.4831 118.937 23.4831C119.996 23.4831 120.886 23.1295 121.581 22.4306C122.276 21.7402 122.623 20.8477 122.623 19.7868C122.623 18.7259 122.267 17.8334 121.572 17.1345C120.886 16.4525 119.996 16.0989 118.937 16.0989ZM121.479 19.8036C121.479 20.5698 121.234 21.2098 120.759 21.6981C120.284 22.1949 119.666 22.4391 118.937 22.4391C118.208 22.4391 117.598 22.1865 117.115 21.6981C116.632 21.2013 116.395 20.5614 116.395 19.8036C116.395 19.0374 116.641 18.3975 117.115 17.9007C117.59 17.404 118.208 17.1514 118.937 17.1514C119.666 17.1514 120.284 17.404 120.759 17.8923C121.234 18.3975 121.479 19.0374 121.479 19.8036Z" fill="#092140"/>
<path d="M129.987 20.9655C129.758 21.4118 129.419 21.7991 129.004 22.0685C128.597 22.3211 128.123 22.4558 127.64 22.4474C126.911 22.4474 126.301 22.1948 125.818 21.7065C125.335 21.2097 125.098 20.5698 125.098 19.812C125.098 19.0458 125.343 18.4059 125.818 17.9091C126.292 17.4123 126.911 17.1598 127.64 17.1598C128.089 17.1513 128.538 17.2692 128.928 17.4881C129.309 17.6986 129.606 18.0102 129.809 18.3891L129.877 18.5153L130.809 17.8586L130.75 17.7576C130.428 17.2439 129.97 16.823 129.428 16.5367C128.877 16.2504 128.258 16.0988 127.64 16.1073C126.589 16.1073 125.699 16.4609 125.004 17.1513C124.309 17.8418 123.962 18.7343 123.962 19.8036C123.962 20.8645 124.309 21.757 125.004 22.4474C125.691 23.1463 126.58 23.4915 127.631 23.4915C127.657 23.4915 127.674 23.4915 127.699 23.4915C128.351 23.4915 128.995 23.3231 129.563 22.9947C130.139 22.6579 130.597 22.1696 130.902 21.5802L130.953 21.4876L130.063 20.8308L129.987 20.9655Z" fill="#092140"/>
<path d="M133.944 16.2168H132.826V23.3148H133.944V16.2168Z" fill="#092140"/>
<path d="M138.766 16.2588L135.283 23.3231H136.478L137.384 21.4875H141.011L141.943 23.3231H143.155L139.638 16.2588H138.766ZM140.503 20.4351H137.901L139.198 17.8333L140.503 20.4351Z" fill="#092140"/>
<path d="M142.113 17.2944H144.994V23.3147H146.104V17.2944H148.985V16.2588H142.113V17.2944Z" fill="#092140"/>
<path d="M150.866 16.2168H149.748V23.3148H150.866V16.2168Z" fill="#092140"/>
<path d="M156.433 16.0989C155.374 16.0989 154.493 16.4525 153.798 17.1429C153.103 17.8334 152.756 18.7259 152.756 19.7952C152.756 20.8561 153.103 21.7486 153.798 22.4391C154.484 23.1379 155.374 23.4831 156.433 23.4831C157.493 23.4831 158.382 23.1295 159.077 22.4306C159.772 21.7402 160.12 20.8477 160.12 19.7868C160.12 18.7259 159.764 17.8334 159.069 17.1345C158.382 16.4525 157.493 16.0989 156.433 16.0989ZM158.976 19.8036C158.976 20.5698 158.73 21.2098 158.255 21.6981C157.781 22.1949 157.162 22.4391 156.433 22.4391C155.705 22.4391 155.095 22.1865 154.612 21.6981C154.137 21.2013 153.891 20.5614 153.891 19.8036C153.891 19.0374 154.137 18.3975 154.612 17.9007C155.086 17.404 155.705 17.1514 156.433 17.1514C157.171 17.1514 157.781 17.404 158.255 17.8923C158.73 18.3975 158.976 19.0374 158.976 19.8036Z" fill="#092140"/>
<path d="M166.89 16.2588V21.1339L162.628 16.2588H162.001V23.3147H163.102V18.4395L167.381 23.3147H168V16.2588H166.89Z" fill="#092140"/>
</g>
<defs>
<clipPath id="clip0_2421:13380">
<rect width="168" height="30" fill="white"/>
</clipPath>
</defs>
</svg>
