<svg width="248" height="249" viewBox="0 0 248 249" fill="none" xmlns="http://www.w3.org/2000/svg">
<path d="M123.815 248.111C192.196 248.111 247.629 192.741 247.629 124.439C247.629 56.1374 192.196 0.767822 123.815 0.767822C55.4337 0.767822 0 56.1374 0 124.439C0 192.741 55.4337 248.111 123.815 248.111Z" fill="white"/>
<path d="M123.815 244.592C190.25 244.592 244.106 190.798 244.106 124.44C244.106 58.0815 190.25 4.2876 123.815 4.2876C57.3797 4.2876 3.52344 58.0815 3.52344 124.44C3.52344 190.798 57.3797 244.592 123.815 244.592Z" fill="white" stroke="#333333" stroke-width="0.30757" stroke-miterlimit="10"/>
<path d="M123.814 214.992C173.883 214.992 214.472 174.45 214.472 124.439C214.472 74.4282 173.883 33.8862 123.814 33.8862C73.7452 33.8862 33.1562 74.4282 33.1562 124.439C33.1562 174.45 73.7452 214.992 123.814 214.992Z" fill="white" stroke="#333333" stroke-width="0.30757" stroke-miterlimit="10"/>
<path d="M41.6491 177.432L30.0502 184.762L29.1328 183.332L40.7248 175.981L41.6491 177.432Z" fill="#231F20"/>
<path d="M38.397 172.35L26.124 178.334L25.7139 177.529L31.0096 165.124L21.836 169.588L21.1133 168.061L33.3585 162.077L33.7408 162.854L28.4938 175.301L37.6534 170.837L38.397 172.35Z" fill="#231F20"/>
<path d="M31.2107 155.885L19.7368 159.668L21.5437 165.11L20.0565 165.603L15.8867 153.108L17.3809 152.615L19.1808 158.065L30.6547 154.281L31.2107 155.885Z" fill="#231F20"/>
<path d="M28.7498 147.93L15.3509 150.54L13.3008 140.023L14.8436 139.725L16.5671 148.582L20.5006 147.812L19.4582 142.446L20.994 142.147L22.0434 147.499L26.9082 146.562L25.0735 137.156L26.6163 136.858L28.7498 147.93Z" fill="#231F20"/>
<path d="M26.3601 134.317L12.718 134.9L12.3844 127.105C12.2702 125.975 12.5825 124.844 13.2601 123.933C13.5926 123.534 14.0091 123.213 14.4801 122.993C14.951 122.774 15.4646 122.661 15.9843 122.662C16.9101 122.594 17.8287 122.867 18.5664 123.43C19.3041 123.993 19.8096 124.807 19.9873 125.717L25.8389 122.058L25.9154 123.933L20.0916 127.591L20.3209 132.866L26.2906 132.617L26.3601 134.317ZM18.7155 132.929L18.4514 126.924C18.4715 126.227 18.2424 125.545 17.8051 125.002C17.5837 124.784 17.3166 124.619 17.0233 124.519C16.7299 124.418 16.4177 124.384 16.1094 124.418C15.7983 124.413 15.4898 124.476 15.2054 124.601C14.9209 124.727 14.6674 124.914 14.4624 125.147C14.0561 125.686 13.8698 126.358 13.9411 127.029L14.2052 133.123L18.7155 132.929Z" fill="#231F20"/>
<path d="M26.0188 119.122L12.4531 117.581L12.5574 116.699L23.6768 109.064L13.5512 107.918L13.7458 106.225L27.3115 107.766L27.2142 108.626L16.0947 116.262L26.2343 117.414L26.0188 119.122Z" fill="#231F20"/>
<path d="M27.5684 105.704L16.1641 95.6664L16.5393 94.278L31.488 91.3625L31.0015 93.1396L26.9707 93.9587L25.0179 101.247L28.0827 103.955L27.5684 105.704ZM23.628 100.074L25.2125 94.2919L18.5825 95.6039L23.628 100.074Z" fill="#231F20"/>
<path d="M32.8995 88.4334L21.7037 83.9006L19.5493 89.2109L18.0898 88.6209L23.0449 76.4314L24.5044 77.0214L22.343 82.3387L33.5389 86.8438L32.8995 88.4334Z" fill="#231F20"/>
<path d="M36.3679 80.6796L24.1504 74.4322L24.9287 72.905L37.1532 79.1525L36.3679 80.6796Z" fill="#231F20"/>
<path d="M42.6776 70.538C42.1896 71.3356 41.5421 72.0241 40.7756 72.5604C40.0091 73.0967 39.1401 73.4692 38.2229 73.6548C37.2945 73.8305 36.3402 73.8172 35.4171 73.6156C34.494 73.414 33.6211 73.0283 32.8508 72.4817C32.0446 71.9828 31.348 71.3257 30.8033 70.5501C30.2586 69.7746 29.8771 68.8967 29.6818 67.9697C29.3573 66.1135 29.7601 64.2039 30.8068 62.6363C31.8535 61.0688 33.4638 59.9635 35.3041 59.5495C37.1681 59.2589 39.0734 59.6775 40.6433 60.7225C42.2133 61.7675 43.3335 63.3628 43.7826 65.193C43.9757 66.112 43.9773 67.0608 43.7872 67.9804C43.5971 68.9 43.2194 69.7707 42.6776 70.538V70.538ZM41.3502 69.6565C41.7586 69.0775 42.0407 68.4194 42.1784 67.7247C42.316 67.0299 42.3062 66.3141 42.1494 65.6234C41.9886 64.9088 41.6862 64.2336 41.2601 63.6376C40.834 63.0415 40.2928 62.5366 39.6684 62.1526C39.0717 61.7246 38.3959 61.4189 37.6802 61.2533C36.9645 61.0877 36.223 61.0654 35.4986 61.1877C34.8033 61.327 34.1423 61.6018 33.5535 61.9965C32.9646 62.3913 32.4595 62.8981 32.067 63.4881C31.6745 64.0781 31.4024 64.7396 31.2662 65.4347C31.13 66.1299 31.1324 66.845 31.2733 67.5393C31.6482 68.9568 32.5294 70.1883 33.7507 71.0015C34.972 71.8148 36.449 72.1536 37.9032 71.9541C38.6075 71.8355 39.2786 71.5694 39.8727 71.1734C40.4667 70.7775 40.9703 70.2605 41.3502 69.6565V69.6565Z" fill="#231F20"/>
<path d="M48.2642 62.1453L38.2637 52.8644L38.8683 52.2119L52.3645 52.67L44.8936 45.7284L46.0473 44.4998L56.0548 53.7807L55.464 54.4124L41.94 53.982L49.4178 60.9236L48.2642 62.1453Z" fill="#231F20"/>
<path d="M57.5219 52.2397L54.332 37.3986L55.437 36.5239L69.1904 43.0629L67.7448 44.2013L64.0198 42.4659L58.0918 47.1237L58.9466 51.1221L57.5219 52.2397ZM57.7165 45.3883L62.4353 41.6746L56.3266 38.7938L57.7165 45.3883Z" fill="#231F20"/>
<path d="M71.1297 42.0148L64.2773 30.2141L65.7368 29.3672L71.8038 39.7796L79.511 35.3161L80.2963 36.6697L71.1297 42.0148Z" fill="#231F20"/>
<path d="M91.9862 17.6986C92.8838 17.3872 93.8344 17.257 94.7828 17.3153C95.7312 17.3737 96.6586 17.6196 97.5111 18.0387C98.3225 18.4646 99.0358 19.055 99.6055 19.7722C100.175 20.4894 100.589 21.3176 100.819 22.2036C101.117 23.0657 101.231 23.9806 101.153 24.8893C101.075 25.798 100.808 26.6803 100.367 27.4793C99.3745 29.1224 97.7702 30.3055 95.9058 30.7696L90.3044 32.4356L86.3848 19.3645L91.9862 17.6986ZM92.4379 19.2049L88.4558 20.3849L91.458 30.4503L95.4401 29.2632C96.1431 29.0967 96.8055 28.791 97.3881 28.3641C97.9706 27.9372 98.4615 27.3979 98.8316 26.7782C99.161 26.1566 99.3576 25.4735 99.4091 24.7721C99.4605 24.0707 99.3656 23.3663 99.1304 22.7034C98.9585 22.0205 98.6476 21.3803 98.2172 20.8225C97.7868 20.2648 97.246 19.8016 96.6285 19.4617C95.9824 19.1384 95.2774 18.9489 94.556 18.9048C93.8346 18.8606 93.1118 18.9627 92.4309 19.2049H92.4379Z" fill="#231F20"/>
<path d="M105.668 28.2288L103.91 14.7066L111.666 13.7001C112.784 13.4873 113.942 13.7002 114.911 14.297C115.337 14.5974 115.69 14.9875 115.947 15.4398C116.204 15.8922 116.358 16.3955 116.399 16.914C116.541 17.8294 116.343 18.7652 115.843 19.545C115.342 20.3249 114.573 20.8952 113.681 21.1484L117.851 26.6531L115.982 26.896L111.812 21.4122L106.572 22.1063L107.336 28.0275L105.668 28.2288ZM106.363 20.5167L112.333 19.7393C113.029 19.6979 113.687 19.4099 114.189 18.9271C114.387 18.6891 114.53 18.4098 114.607 18.1096C114.684 17.8094 114.693 17.4958 114.633 17.1917C114.609 16.8816 114.519 16.5804 114.368 16.3085C114.216 16.0366 114.008 15.8004 113.758 15.6159C113.186 15.2593 112.502 15.1305 111.84 15.255L105.794 16.0394L106.363 20.5167Z" fill="#231F20"/>
<path d="M121.013 26.7363L120.756 13.0266H122.472L122.73 26.7363H121.013Z" fill="#231F20"/>
<path d="M132.488 27.0972L131.424 27.007L126.018 12.8669L127.859 13.0197L132.182 24.3692L138.346 13.9151L140.216 14.0748L132.488 27.0972Z" fill="#231F20"/>
<path d="M141.016 28.111L144.06 14.8179L154.484 17.2127L154.137 18.7399L145.359 16.7338L144.463 20.6349L149.786 21.8497L149.439 23.3838L144.115 22.1621L143.01 26.9657L152.364 29.1037L152.01 30.6169L141.016 28.111Z" fill="#231F20"/>
<path d="M154.4 31.4288L159.383 18.7327L166.667 21.5926C167.748 21.9453 168.66 22.6876 169.224 23.6751C169.452 24.1424 169.573 24.6544 169.579 25.174C169.585 25.6937 169.476 26.2083 169.259 26.6808C168.936 27.5521 168.306 28.2756 167.487 28.7147C166.67 29.1537 165.723 29.2843 164.818 29.0826L165.805 35.9062L164.053 35.212L163.06 28.4162L158.139 26.4864L155.957 32.0397L154.4 31.4288ZM158.737 25.0079L164.338 27.2014C164.969 27.5026 165.687 27.5667 166.361 27.3819C166.65 27.268 166.909 27.0911 167.121 26.8641C167.333 26.6371 167.491 26.3658 167.584 26.0699C167.715 25.7882 167.782 25.4815 167.782 25.171C167.782 24.8605 167.715 24.5538 167.584 24.2721C167.26 23.6889 166.73 23.248 166.097 23.0365L160.419 20.8082L158.737 25.0079Z" fill="#231F20"/>
<path d="M168.376 34.8582L169.975 34.0946C170.397 35.1755 170.98 36.1865 171.705 37.0934C172.361 37.9265 173.164 38.6323 174.075 39.1759C174.984 39.7637 176.05 40.0615 177.133 40.0297C177.553 40.0322 177.967 39.9246 178.333 39.7175C178.699 39.5105 179.004 39.2112 179.218 38.8496C179.385 38.5725 179.482 38.2589 179.5 37.9358C179.518 37.6128 179.457 37.2902 179.322 36.9962C178.97 36.2365 178.405 35.5951 177.696 35.1497C177.501 35.004 177.216 34.8096 176.834 34.5597C175.5 33.7516 174.302 32.7398 173.283 31.5609C172.913 31.0464 172.687 30.4425 172.629 29.8117C172.587 29.2355 172.725 28.6604 173.025 28.1665C173.297 27.7015 173.681 27.3117 174.143 27.0329C174.604 26.754 175.128 26.5949 175.666 26.5699C177.018 26.4938 178.359 26.8487 179.496 27.5834C180.47 28.1655 181.343 28.9016 182.081 29.7631C182.861 30.6688 183.496 31.6897 183.964 32.7896L182.4 33.4838C182.043 32.5236 181.531 31.6279 180.885 30.8321C180.269 30.0748 179.52 29.4352 178.675 28.944C177.927 28.4655 177.062 28.1992 176.174 28.1734C175.857 28.144 175.538 28.2023 175.253 28.3419C174.967 28.4815 174.725 28.697 174.554 28.9648C174.435 29.1595 174.368 29.382 174.36 29.6103C174.358 29.8607 174.407 30.1089 174.506 30.3392C174.777 30.9848 175.687 31.8317 177.23 32.866C177.925 33.3449 178.495 33.7267 178.87 34.0113C179.865 34.6865 180.622 35.6582 181.031 36.788C181.198 37.2722 181.255 37.7873 181.198 38.2961C181.142 38.805 180.973 39.295 180.705 39.7312C180.394 40.27 179.955 40.7238 179.426 41.052C178.898 41.3803 178.296 41.5727 177.675 41.6124C176.13 41.7218 174.592 41.3219 173.296 40.4739C171.043 39.2145 169.3 37.2087 168.369 34.8027L168.376 34.8582Z" fill="#231F20"/>
<path d="M186.744 49.2481L201.067 44.1599L202.075 45.1456L197.37 59.6188L196.05 58.3346L197.294 54.4126L191.901 49.1509L188.044 50.5392L186.744 49.2481ZM193.569 48.5539L197.87 52.7189L199.955 46.2979L193.569 48.5539Z" fill="#231F20"/>
<path d="M199.538 59.0774L201.303 58.9803C201.271 60.1527 201.419 61.3232 201.741 62.4511C202.027 63.4719 202.498 64.4318 203.131 65.2832C203.741 66.1753 204.609 66.8606 205.619 67.2477C206.003 67.4089 206.422 67.4668 206.836 67.4157C207.249 67.3645 207.642 67.2061 207.975 66.9561C208.235 66.7646 208.445 66.5131 208.586 66.223C208.728 65.9328 208.797 65.6128 208.788 65.2902C208.755 64.4537 208.482 63.6443 208.003 62.9578C207.877 62.7495 207.69 62.458 207.44 62.0831C206.521 60.8121 205.804 59.4073 205.313 57.9182C205.175 57.2997 205.202 56.6561 205.39 56.0509C205.575 55.4957 205.926 55.0109 206.397 54.6626C206.826 54.3394 207.33 54.1288 207.862 54.05C208.393 53.9711 208.936 54.0266 209.441 54.2114C210.722 54.6591 211.826 55.5059 212.589 56.6271C213.278 57.5416 213.809 58.5645 214.16 59.6536C214.532 60.7899 214.725 61.9773 214.73 63.173L213.006 63.2285C213.054 62.203 212.937 61.1765 212.659 60.1881C212.378 59.2518 211.934 58.3727 211.345 57.5919C210.841 56.8616 210.147 56.2831 209.337 55.919C209.056 55.771 208.74 55.7024 208.422 55.7208C208.105 55.7391 207.799 55.8437 207.537 56.0231C207.355 56.161 207.207 56.3392 207.106 56.5438C207.01 56.7747 206.96 57.0224 206.96 57.2726C206.96 57.9714 207.474 59.0983 208.503 60.6532C208.966 61.3705 209.321 61.9327 209.566 62.34C210.225 63.358 210.544 64.5586 210.477 65.7691C210.44 66.2792 210.292 66.7751 210.043 67.2222C209.795 67.6694 209.452 68.0571 209.038 68.3584C208.543 68.7363 207.963 68.986 207.348 69.0853C206.733 69.1847 206.103 69.1305 205.515 68.9276C204.044 68.4184 202.78 67.4435 201.915 66.1509C201.131 65.1303 200.521 63.9883 200.108 62.7704C199.716 61.5791 199.523 60.3313 199.538 59.0774V59.0774Z" fill="#231F20"/>
<path d="M208.725 71.5168L210.49 71.6973C210.282 72.8425 210.247 74.0125 210.386 75.1681C210.512 76.218 210.828 77.2363 211.317 78.1738C211.787 79.1507 212.54 79.9635 213.479 80.5062C213.835 80.7213 214.242 80.8406 214.658 80.8528C215.074 80.865 215.487 80.7695 215.856 80.5756C216.142 80.4253 216.388 80.2079 216.572 79.9419C216.756 79.6759 216.873 79.3693 216.912 79.0485C217.01 78.2169 216.863 77.3747 216.488 76.6258C216.398 76.4037 216.259 76.0844 216.071 75.6748C215.36 74.2872 214.867 72.7979 214.612 71.26C214.563 70.6299 214.688 69.9987 214.973 69.4344C215.238 68.9185 215.659 68.4985 216.175 68.2335C216.648 67.9771 217.177 67.8428 217.715 67.8428C218.252 67.8428 218.781 67.9771 219.254 68.2335C220.448 68.875 221.407 69.8789 221.992 71.1003C222.535 72.1146 222.904 73.2128 223.083 74.349C223.271 75.5286 223.271 76.7304 223.083 77.91L221.374 77.7018C221.575 76.6961 221.608 75.664 221.471 74.6475C221.344 73.6761 221.042 72.7356 220.581 71.8709C220.194 71.0729 219.596 70.3959 218.851 69.9133C218.597 69.7216 218.296 69.6034 217.98 69.5716C217.663 69.5397 217.344 69.5955 217.058 69.7328C216.853 69.837 216.678 69.9925 216.551 70.184C216.42 70.3964 216.333 70.6322 216.293 70.8782C216.191 71.5724 216.525 72.7663 217.294 74.4601C217.656 75.2375 217.92 75.8484 218.093 76.2926C218.584 77.3978 218.713 78.6294 218.462 79.812C218.347 80.3116 218.124 80.7803 217.81 81.1854C217.496 81.5906 217.097 81.9226 216.641 82.1583C216.092 82.4506 215.48 82.6035 214.858 82.6035C214.237 82.6035 213.624 82.4506 213.076 82.1583C211.702 81.4431 210.599 80.3002 209.934 78.9027C209.317 77.7751 208.892 76.5529 208.677 75.2861C208.483 74.0357 208.5 72.7619 208.725 71.5168V71.5168Z" fill="#231F20"/>
<path d="M216.002 92.8692C215.668 91.994 215.519 91.0593 215.565 90.124C215.61 89.1886 215.849 88.2727 216.266 87.4339C217.175 85.7623 218.68 84.4932 220.482 83.8785C222.285 83.2639 224.252 83.3486 225.995 84.1158C227.667 84.986 228.941 86.4651 229.551 88.247C230.162 90.0289 230.063 91.9771 229.275 93.6883C228.377 95.3706 226.873 96.6501 225.068 97.2684C223.262 97.8868 221.289 97.7981 219.546 97.0203C218.702 96.6073 217.952 96.0259 217.343 95.3119C216.733 94.5979 216.277 93.7665 216.002 92.8692V92.8692ZM217.51 92.3555C217.72 93.0314 218.071 93.6553 218.539 94.1864C219.007 94.7175 219.582 95.1439 220.227 95.4376C221.583 96.0008 223.099 96.0499 224.488 95.5757C225.878 95.1015 227.047 94.1365 227.774 92.8622C228.4 91.5789 228.49 90.0999 228.025 88.7502C227.56 87.4005 226.577 86.2904 225.293 85.6638C223.94 85.1008 222.427 85.0511 221.04 85.5241C219.653 85.9971 218.486 86.9602 217.76 88.2322C217.431 88.8637 217.24 89.5577 217.199 90.2685C217.158 90.9793 217.269 91.6906 217.524 92.3555H217.51Z" fill="#231F20"/>
<path d="M225.39 112.382L224.626 113.895C223.405 113.511 222.318 112.789 221.491 111.813C220.664 110.819 220.121 109.619 219.921 108.342C219.733 107.424 219.737 106.477 219.934 105.561C220.13 104.645 220.513 103.779 221.061 103.018C222.226 101.519 223.912 100.51 225.785 100.191C227.658 99.8728 229.583 100.267 231.179 101.296C231.946 101.833 232.595 102.521 233.084 103.319C233.573 104.117 233.892 105.007 234.022 105.933C234.239 107.112 234.158 108.327 233.785 109.466C233.417 110.58 232.763 111.578 231.888 112.361L230.644 111.139C231.369 110.591 231.917 109.843 232.222 108.987C232.542 108.098 232.621 107.14 232.451 106.211C232.349 105.511 232.101 104.84 231.723 104.242C231.345 103.644 230.844 103.132 230.255 102.74C229.008 101.965 227.522 101.67 226.073 101.912C224.625 102.154 223.315 102.914 222.388 104.052C221.964 104.62 221.665 105.271 221.509 105.962C221.354 106.653 221.345 107.37 221.485 108.064C221.638 109.061 222.077 109.991 222.749 110.744C223.47 111.512 224.381 112.077 225.39 112.382V112.382Z" fill="#231F20"/>
<path d="M221.387 117.768L235.091 116.963L235.189 118.678L221.484 119.469L221.387 117.768Z" fill="#231F20"/>
<path d="M221.854 121.725L235.155 129.07L235.086 130.458L221.117 136.532L221.208 134.692L224.967 133.026L225.343 125.509L221.763 123.523L221.854 121.725ZM226.892 126.376L226.6 132.367L232.786 129.66L226.892 126.376Z" fill="#231F20"/>
<path d="M220.38 139.773L232.298 141.759L233.243 136.115L234.793 136.372L232.618 149.36L231.068 149.103L232.013 143.439L220.102 141.453L220.38 139.773Z" fill="#231F20"/>
<path d="M218.698 148.083L231.993 151.491L231.562 153.157L218.268 149.742L218.698 148.083Z" fill="#231F20"/>
<path d="M214.744 159.383C215.054 158.499 215.542 157.689 216.18 157.002C216.817 156.315 217.589 155.767 218.448 155.392C220.213 154.685 222.179 154.667 223.956 155.343C225.733 156.018 227.191 157.336 228.039 159.036C228.764 160.775 228.792 162.726 228.116 164.484C227.441 166.243 226.114 167.675 224.411 168.484C222.647 169.196 220.677 169.214 218.9 168.536C217.122 167.857 215.667 166.532 214.828 164.825C214.445 163.971 214.24 163.049 214.225 162.113C214.211 161.177 214.388 160.248 214.744 159.383V159.383ZM216.231 159.959C215.962 160.614 215.832 161.318 215.851 162.026C215.87 162.734 216.038 163.43 216.343 164.069C217.022 165.367 218.152 166.373 219.521 166.9C220.889 167.426 222.403 167.436 223.779 166.929C225.089 166.352 226.117 165.28 226.638 163.948C227.159 162.616 227.131 161.132 226.559 159.821C225.879 158.512 224.743 157.497 223.365 156.969C221.987 156.44 220.463 156.435 219.081 156.954C218.423 157.228 217.831 157.637 217.343 158.155C216.854 158.673 216.48 159.288 216.245 159.959H216.231Z" fill="#231F20"/>
<path d="M211.159 168.755L222.973 175.634L222.521 176.397L209.255 178.896L218.06 184.033L217.205 185.505L205.391 178.633L205.828 177.883L219.116 175.356L210.304 170.219L211.159 168.755Z" fill="#231F20"/>
<path d="M123.814 40.2656C107.147 40.2656 90.854 45.2023 76.9957 54.4515C63.1373 63.7006 52.3361 76.8468 45.9578 92.2275C39.5795 107.608 37.9106 124.533 41.1623 140.861C44.4139 157.189 52.4399 172.187 64.2255 183.959C76.011 195.731 91.0267 203.748 107.374 206.996C123.721 210.244 140.665 208.577 156.064 202.206C171.462 195.835 184.623 185.046 193.883 171.204C203.143 157.362 208.086 141.087 208.086 124.439C208.062 102.122 199.175 80.7264 183.377 64.9459C167.578 49.1655 146.157 40.2895 123.814 40.2656V40.2656ZM118.074 52.8854V72.787H99.8728C100.067 72.3983 100.276 71.9748 100.477 71.5931C105.634 61.5486 111.833 55.2872 118.074 52.8854ZM129.562 52.8854C135.816 55.2872 142.008 61.5486 147.158 71.6278C147.353 72.0096 147.568 72.433 147.756 72.8217H129.562V52.8854ZM95.6891 57.3628C93.6558 60.2152 91.8347 63.2127 90.2406 66.3313C89.1912 68.4138 88.2391 70.5657 87.3079 72.787H72.5816C79.2203 66.2102 87.0659 60.9733 95.6891 57.3628V57.3628ZM151.946 57.3628C160.568 60.9733 168.411 66.2103 175.047 72.787H160.328C159.396 70.5657 158.444 68.3791 157.395 66.3313C155.801 63.2127 153.98 60.2152 151.946 57.3628V57.3628ZM63.1301 84.2684H83.2354C81.4536 90.5406 80.1343 96.9347 79.288 103.399H54.1511C56.1867 96.6164 59.2122 90.1701 63.1301 84.2684V84.2684ZM95.3277 84.2684H118.074V103.399H90.9008C91.8468 96.9116 93.3274 90.5128 95.3277 84.2684V84.2684ZM129.562 84.2684H152.308C154.305 90.5137 155.785 96.9122 156.735 103.399H129.562V84.2684ZM164.393 84.2684H184.505C188.423 90.1701 191.449 96.6164 193.484 103.399H168.348C167.499 96.9345 166.177 90.5404 164.393 84.2684V84.2684ZM51.6979 114.874H78.1482C77.9606 118.025 77.8494 121.205 77.8494 124.439C77.8494 127.674 77.9675 130.881 78.1482 134.005H51.6979C51.2586 130.835 51.0264 127.64 51.003 124.439C51.023 121.239 51.2551 118.044 51.6979 114.874V114.874ZM89.6429 114.874H118.074V134.005H89.6499C89.4483 130.888 89.3511 127.667 89.3511 124.439C89.3511 121.212 89.4344 118.012 89.6499 114.874H89.6429ZM129.562 114.874H157.993C158.194 118.012 158.291 121.191 158.291 124.439C158.291 127.688 158.194 130.888 157.993 134.005H129.562V114.874ZM169.48 114.874H195.938C196.818 121.221 196.818 127.658 195.938 134.005H169.48C169.668 130.881 169.786 127.66 169.786 124.439C169.786 121.219 169.668 118.025 169.48 114.874ZM54.1511 145.486H79.288C80.1322 151.942 81.4516 158.327 83.2354 164.59H63.0814C59.1877 158.691 56.179 152.255 54.1511 145.486V145.486ZM90.8383 145.486H118.074V164.59H95.2652C93.2696 158.353 91.789 151.964 90.8383 145.486V145.486ZM129.562 145.486H156.797C155.848 151.965 154.365 158.354 152.363 164.59H129.562V145.486ZM168.348 145.486H193.484C191.461 152.254 188.457 158.69 184.568 164.59H164.414C166.202 158.318 167.523 151.924 168.368 145.459L168.348 145.486ZM72.526 176.092H87.3079C88.2391 178.32 89.1912 180.444 90.2406 182.492C91.8637 185.655 93.7222 188.693 95.8003 191.579C87.1091 187.975 79.2038 182.715 72.526 176.092V176.092ZM99.8728 176.092H118.074V196C111.819 193.599 105.62 187.33 100.477 177.293L99.8728 176.092ZM129.562 176.092H147.756C147.561 176.494 147.36 176.897 147.158 177.293C142.008 187.33 135.802 193.599 129.562 196V176.092ZM160.328 176.092H175.13C168.451 182.715 160.543 187.976 151.849 191.579C153.925 188.691 155.783 185.654 157.409 182.492C158.451 180.444 159.396 178.32 160.328 176.092V176.092Z" fill="#333333"/>
</svg>
