<svg width="20" height="20" viewBox="0 0 20 20" fill="none" xmlns="http://www.w3.org/2000/svg">
<path d="M17.875 12.9532V1.79695C17.8764 1.69191 17.8568 1.58764 17.8173 1.49031C17.7777 1.39299 17.7191 1.30457 17.6448 1.23029C17.5705 1.156 17.4821 1.09736 17.3848 1.05782C17.2874 1.01828 17.1832 0.998643 17.0781 1.00007H6.1875C5.34212 1.00007 4.53137 1.3359 3.9336 1.93367C3.33582 2.53144 3 3.3422 3 4.18757V14.8126C3 15.658 3.33582 16.4687 3.9336 17.0665C4.53137 17.6642 5.34212 18.0001 6.1875 18.0001H17.0781C17.1832 18.0015 17.2874 17.9819 17.3848 17.9423C17.4821 17.9028 17.5705 17.8441 17.6448 17.7699C17.7191 17.6956 17.7777 17.6072 17.8173 17.5098C17.8568 17.4125 17.8764 17.3082 17.875 17.2032V16.6719C17.8751 16.5535 17.8483 16.4365 17.7968 16.3298C17.7453 16.223 17.6703 16.1294 17.5775 16.0557C17.4394 15.2327 17.4394 14.3924 17.5775 13.5694C17.6703 13.4958 17.7453 13.4021 17.7968 13.2954C17.8483 13.1887 17.8751 13.0717 17.875 12.9532ZM7.25 5.45195C7.24846 5.42503 7.25262 5.3981 7.26222 5.37291C7.27182 5.34772 7.28664 5.32484 7.3057 5.30578C7.32477 5.28671 7.34764 5.2719 7.37283 5.2623C7.39803 5.2527 7.42496 5.24853 7.45188 5.25007H14.4856C14.5125 5.24853 14.5395 5.2527 14.5647 5.2623C14.5899 5.2719 14.6127 5.28671 14.6318 5.30578C14.6509 5.32484 14.6657 5.34772 14.6753 5.37291C14.6849 5.3981 14.689 5.42503 14.6875 5.45195V6.1107C14.689 6.13761 14.6849 6.16455 14.6753 6.18974C14.6657 6.21493 14.6509 6.23781 14.6318 6.25687C14.6127 6.27593 14.5899 6.29075 14.5647 6.30035C14.5395 6.30995 14.5125 6.31411 14.4856 6.31257H7.45188C7.42496 6.31411 7.39803 6.30995 7.37283 6.30035C7.34764 6.29075 7.32477 6.27593 7.3057 6.25687C7.28664 6.23781 7.27182 6.21493 7.26222 6.18974C7.25262 6.16455 7.24846 6.13761 7.25 6.1107V5.45195ZM7.25 7.57695C7.24846 7.55003 7.25262 7.5231 7.26222 7.49791C7.27182 7.47272 7.28664 7.44984 7.3057 7.43078C7.32477 7.41171 7.34764 7.3969 7.37283 7.3873C7.39803 7.3777 7.42496 7.37353 7.45188 7.37507H14.4856C14.5125 7.37353 14.5395 7.3777 14.5647 7.3873C14.5899 7.3969 14.6127 7.41171 14.6318 7.43078C14.6509 7.44984 14.6657 7.47272 14.6753 7.49791C14.6849 7.5231 14.689 7.55003 14.6875 7.57695V8.2357C14.689 8.26261 14.6849 8.28955 14.6753 8.31474C14.6657 8.33993 14.6509 8.36281 14.6318 8.38187C14.6127 8.40093 14.5899 8.41575 14.5647 8.42535C14.5395 8.43495 14.5125 8.43911 14.4856 8.43757H7.45188C7.42496 8.43911 7.39803 8.43495 7.37283 8.42535C7.34764 8.41575 7.32477 8.40093 7.3057 8.38187C7.28664 8.36281 7.27182 8.33993 7.26222 8.31474C7.25262 8.28955 7.24846 8.26261 7.25 8.2357V7.57695ZM15.665 15.8751H6.1875C5.90571 15.8751 5.63546 15.7631 5.4362 15.5639C5.23694 15.3646 5.125 15.0944 5.125 14.8126C5.125 14.5308 5.23694 14.2605 5.4362 14.0613C5.63546 13.862 5.90571 13.7501 6.1875 13.7501H15.665C15.6012 14.457 15.6012 15.1682 15.665 15.8751Z" fill="#1F2937"/>
</svg>
