<svg width="20" height="16" viewBox="0 0 20 16" fill="none" xmlns="http://www.w3.org/2000/svg">
<rect width="20" height="15" transform="translate(0 0.5)" fill="#2047F4"/>
<path d="M13.75 8C13.75 10.0711 12.0711 11.75 10 11.75M13.75 8C13.75 5.92893 12.0711 4.25 10 4.25M13.75 8H6.25M10 11.75C7.92893 11.75 6.25 10.0711 6.25 8M10 11.75C10.6904 11.75 11.25 10.0711 11.25 8C11.25 5.92893 10.6904 4.25 10 4.25M10 11.75C9.30964 11.75 8.75 10.0711 8.75 8C8.75 5.92893 9.30964 4.25 10 4.25M6.25 8C6.25 5.92893 7.92893 4.25 10 4.25" stroke="#F9FAFB" stroke-width="0.958333" stroke-linecap="round" stroke-linejoin="round"/>
</svg>
