<svg width="20" height="20" viewBox="0 0 20 20" fill="none" xmlns="http://www.w3.org/2000/svg">
<path fill-rule="evenodd" clip-rule="evenodd" d="M6.91079 4.41074L8.57745 2.74408C8.90289 2.41864 9.43053 2.41864 9.75596 2.74408C10.0564 3.04448 10.0795 3.51717 9.82529 3.84408L9.75596 3.92259L9.49101 4.18585C9.65971 4.17309 9.82948 4.16667 10 4.16667C13.6819 4.16667 16.6667 7.15143 16.6667 10.8333C16.6667 14.5152 13.6819 17.5 10 17.5C6.31814 17.5 3.33337 14.5152 3.33337 10.8333C3.33337 10.3731 3.70647 10 4.16671 10C4.62694 10 5.00004 10.3731 5.00004 10.8333C5.00004 13.5948 7.23862 15.8333 10 15.8333C12.7615 15.8333 15 13.5948 15 10.8333C15 8.07191 12.7615 5.83333 10 5.83333C9.84415 5.83333 9.68931 5.84044 9.53583 5.85454L9.75596 6.07741C10.0814 6.40285 10.0814 6.93049 9.75596 7.25592C9.45556 7.55633 8.98287 7.57943 8.65596 7.32525L8.57745 7.25592L6.91079 5.58926C6.61038 5.28885 6.58727 4.81616 6.84146 4.48925L6.91079 4.41074L8.57745 2.74408L6.91079 4.41074Z" fill="#1F2937"/>
</svg>
