<?xml version="1.0" encoding="UTF-8"?>
<!DOCTYPE svg PUBLIC "-//W3C//DTD SVG 1.1//EN" "http://www.w3.org/Graphics/SVG/1.1/DTD/svg11.dtd">
<!-- Creator: CorelDRAW 2019 (64-Bit) -->
<svg xmlns="http://www.w3.org/2000/svg" xml:space="preserve" width="16.9332mm" height="16.9332mm" version="1.1" style="shape-rendering:geometricPrecision; text-rendering:geometricPrecision; image-rendering:optimizeQuality; fill-rule:evenodd; clip-rule:evenodd"
viewBox="0 0 1693.32 1693.32"
 xmlns:xlink="http://www.w3.org/1999/xlink"
 xmlns:xodm="http://www.corel.com/coreldraw/odm/2003">
 <defs>
  <style type="text/css">
   <![CDATA[
    .fil0 {fill:#2B2A29;fill-rule:nonzero}
   ]]>
  </style>
 </defs>
 <g id="Слой_x0020_1">
  <metadata id="CorelCorpID_0Corel-Layer"/>
  <g>
   <path class="fil0" d="M846.87 1322.3c36.53,0 66.15,29.62 66.15,66.15 0,36.53 -29.62,66.15 -66.15,66.15l0 -132.3zm-263.85 72.19l57.42 -119.18 0.24 0.12 21.05 9.52 21.57 8.5 22.09 7.48 22.54 6.4 23 5.31 23.41 4.18 23.79 3.02 24.2 1.84 24.54 0.62 0 132.3 -31.22 -0.8 -30.84 -2.34 -30.43 -3.86 -29.95 -5.36 -29.44 -6.79 -28.88 -8.2 -28.27 -9.56 -27.63 -10.9 -26.95 -12.18 -0.24 -0.12zm0 0c-32.91,-15.85 -46.73,-55.39 -30.88,-88.3 15.85,-32.91 55.39,-46.73 88.3,-30.88l-57.42 119.18zm-166.31 -344.31c17.43,32.1 5.54,72.27 -26.56,89.7 -32.1,17.43 -72.27,5.54 -89.7,-26.56l116.26 -63.14zm-177.84 -203.58l132.3 0 0 0 0.62 24.54 1.84 24.2 3.02 23.79 4.18 23.42 5.31 22.99 6.4 22.54 7.48 22.09 8.5 21.57 9.53 21.06 -1.34 -2.62 -116.26 63.14 -1.58 -3.1 -12.19 -26.94 -10.9 -27.65 -9.56 -28.27 -8.2 -28.88 -6.79 -29.43 -5.36 -29.96 -3.86 -30.43 -2.34 -30.84 -0.8 -31.22 0 0zm60.11 -263.84l119.18 57.42 -0.11 0.22 -9.53 21.06 -8.5 21.57 -7.48 22.09 -6.4 22.54 -5.31 22.99 -4.18 23.42 -3.02 23.79 -1.84 24.2 -0.62 24.54 -132.3 0 0.8 -31.22 2.34 -30.84 3.86 -30.43 5.36 -29.96 6.79 -29.43 8.2 -28.88 9.56 -28.27 10.9 -27.65 12.19 -26.94 0.11 -0.22zm0 0c15.85,-32.91 55.39,-46.73 88.3,-30.88 32.91,15.85 46.73,55.39 30.88,88.3l-119.18 -57.42zm344.31 -166.33c-32.09,17.43 -72.26,5.54 -89.69,-26.55 -17.43,-32.09 -5.54,-72.26 26.55,-89.69l63.14 116.24zm203.58 -177.83l0 132.3 0 0 -24.54 0.62 -24.2 1.84 -23.79 3.02 -23.41 4.18 -23 5.31 -22.54 6.4 -22.09 7.48 -21.57 8.5 -21.05 9.52 2.61 -1.34 -63.14 -116.24 3.11 -1.6 26.95 -12.18 27.63 -10.9 28.27 -9.56 28.88 -8.2 29.44 -6.79 29.95 -5.36 30.43 -3.86 30.84 -2.34 31.22 -0.8 0 0zm263.84 60.11l-57.42 119.18 -0.23 -0.12 -21.05 -9.52 -21.57 -8.5 -22.09 -7.48 -22.54 -6.4 -23 -5.31 -23.41 -4.18 -23.79 -3.02 -24.2 -1.84 -24.54 -0.62 0 -132.3 31.22 0.8 30.84 2.34 30.43 3.86 29.95 5.36 29.44 6.79 28.88 8.2 28.27 9.56 27.63 10.9 26.95 12.18 0.23 0.12zm0 0c32.91,15.85 46.73,55.39 30.88,88.3 -15.85,32.91 -55.39,46.73 -88.3,30.88l57.42 -119.18zm166.31 344.31c-17.43,-32.1 -5.54,-72.27 26.56,-89.7 32.1,-17.43 72.27,-5.54 89.7,26.56l-116.26 63.14zm177.85 203.58l-132.3 0 0 0 -0.62 -24.54 -1.84 -24.2 -3.02 -23.79 -4.18 -23.42 -5.31 -22.99 -6.4 -22.54 -7.48 -22.09 -8.5 -21.57 -9.53 -21.06 1.33 2.62 116.26 -63.14 1.59 3.1 12.19 26.94 10.9 27.65 9.56 28.27 8.2 28.88 6.79 29.43 5.36 29.96 3.86 30.43 2.34 30.84 0.8 31.22 0 0zm-60.11 263.84l-119.18 -57.42 0.11 -0.22 9.53 -21.06 8.5 -21.57 7.48 -22.09 6.4 -22.54 5.31 -22.99 4.18 -23.42 3.02 -23.79 1.84 -24.2 0.62 -24.54 132.3 0 -0.8 31.22 -2.34 30.84 -3.86 30.43 -5.36 29.96 -6.79 29.43 -8.2 28.88 -9.56 28.27 -10.9 27.65 -12.19 26.94 -0.11 0.22zm0 0c-15.85,32.91 -55.39,46.73 -88.3,30.88 -32.91,-15.85 -46.73,-55.39 -30.88,-88.3l119.18 57.42zm-344.31 166.33c32.09,-17.43 72.26,-5.54 89.69,26.55 17.43,32.09 5.54,72.26 -26.55,89.69l-63.14 -116.24zm-203.58 177.83l0 -132.3 0 0 24.54 -0.62 24.2 -1.84 23.79 -3.02 23.41 -4.18 23 -5.31 22.54 -6.4 22.09 -7.48 21.57 -8.5 21.05 -9.52 -2.61 1.34 63.14 116.24 -3.11 1.6 -26.95 12.18 -27.63 10.9 -28.27 9.56 -28.88 8.2 -29.44 6.79 -29.95 5.36 -30.43 3.86 -30.84 2.34 -31.22 0.8 0 0z"/>
  </g>
 </g>
</svg>
